<svg width="18" height="18" viewBox="0 0 18 18" fill="none" xmlns="http://www.w3.org/2000/svg">
<path d="M10.2297 9.36252C9.88657 9.02878 9.43327 8.85184 8.95454 8.86548C8.04024 8.89083 7.29078 9.62595 7.24824 10.5391C7.22285 11.0847 7.4552 11.6154 7.87131 11.9666V13.2056C7.87131 13.8302 8.37949 14.3384 9.00411 14.3384C9.62874 14.3384 10.1369 13.8302 10.1369 13.2056V11.9666C10.5346 11.6314 10.7619 11.1437 10.7619 10.6226C10.7619 10.1439 10.5729 9.6964 10.2297 9.36252ZM9.66621 11.4435C9.51852 11.5628 9.43379 11.741 9.43379 11.9325V13.2056C9.43379 13.4425 9.24103 13.6353 9.00411 13.6353C8.7672 13.6353 8.57444 13.4425 8.57444 13.2056V11.9325C8.57444 11.741 8.48978 11.5628 8.34216 11.4436C8.34216 11.4436 8.34216 11.4436 8.34216 11.4436C8.0775 11.2299 7.93477 10.9121 7.95062 10.5718C7.97611 10.0243 8.42562 9.58355 8.97395 9.56836C8.98404 9.56808 8.9941 9.56794 9.00415 9.56794C9.28069 9.56794 9.54081 9.67334 9.73944 9.86652C9.94539 10.0669 10.0588 10.3354 10.0588 10.6226C10.0588 10.9428 9.91568 11.242 9.66621 11.4435Z" fill="#C3C3C3"/>
<path d="M13.5744 7.12853V4.57031C13.5744 2.05021 11.5242 0 9.00412 0C6.48405 0 4.43381 2.05021 4.43381 4.57031V7.12399C3.57666 8.00002 2.98185 9.11036 2.73587 10.3115C2.69691 10.5017 2.81954 10.6875 3.00977 10.7265C3.2001 10.7654 3.38576 10.6428 3.42472 10.4525C3.96416 7.81826 6.31066 5.90625 9.00412 5.90625C12.1445 5.90625 14.6994 8.46116 14.6994 11.6016C14.6994 14.742 12.1445 17.2969 9.00412 17.2969C6.31024 17.2969 3.96366 15.3845 3.42454 12.7497C3.38562 12.5595 3.20003 12.4368 3.00963 12.4758C2.8194 12.5147 2.69677 12.7005 2.73569 12.8907C3.02685 14.3136 3.80753 15.6092 4.93398 16.5388C6.07574 17.4811 7.52123 18 9.00412 18C12.5322 18 15.4026 15.1297 15.4026 11.6016C15.4026 9.86217 14.7046 8.28299 13.5744 7.12853ZM11.1838 5.58566C10.5032 5.3383 9.76916 5.20312 9.00412 5.20312C8.25666 5.20312 7.51877 5.33514 6.82443 5.58657V4.57031C6.82443 3.36843 7.80223 2.39062 9.00412 2.39062C10.206 2.39062 11.1838 3.36843 11.1838 4.57031V5.58566ZM12.8713 6.50763C12.5637 6.27353 12.2345 6.06656 11.8869 5.89043V4.57031C11.8869 2.98072 10.5937 1.6875 9.00412 1.6875C7.41453 1.6875 6.12131 2.98072 6.12131 4.57031V5.8899C5.77646 6.06371 5.44669 6.26889 5.13693 6.50391V4.57031C5.13693 2.43795 6.87175 0.703125 9.00412 0.703125C11.1365 0.703125 12.8713 2.43795 12.8713 4.57031V6.50763Z" fill="#C3C3C3"/>
<path d="M13.7527 11.353C13.6873 11.2876 13.5966 11.25 13.5041 11.25C13.4117 11.25 13.321 11.2876 13.2556 11.353C13.1902 11.4184 13.1526 11.5091 13.1526 11.6016C13.1526 11.694 13.1902 11.7847 13.2556 11.8501C13.321 11.9155 13.4117 11.9531 13.5041 11.9531C13.5966 11.9531 13.6873 11.9155 13.7527 11.8501C13.8181 11.7847 13.8557 11.694 13.8557 11.6016C13.8557 11.5091 13.8181 11.4184 13.7527 11.353Z" fill="#C3C3C3"/>
<path d="M13.7261 10.4833C13.4793 9.43766 12.8792 8.48971 12.0363 7.81407C11.1803 7.12789 10.1034 6.75 9.00412 6.75C8.80995 6.75 8.65256 6.90743 8.65256 7.10156C8.65256 7.2957 8.80995 7.45312 9.00412 7.45312C10.938 7.45312 12.5983 8.76558 13.0417 10.6448C13.0799 10.8066 13.2242 10.9157 13.3836 10.9157C13.4104 10.9157 13.4375 10.9126 13.4647 10.9062C13.6536 10.8616 13.7707 10.6722 13.7261 10.4833Z" fill="#C3C3C3"/>
<path d="M2.96549 11.25H2.94901C2.75484 11.25 2.59744 11.4074 2.59744 11.6016C2.59744 11.7957 2.75484 11.9531 2.94901 11.9531H2.96549C3.15966 11.9531 3.31706 11.7957 3.31706 11.6016C3.31706 11.4074 3.15966 11.25 2.96549 11.25Z" fill="#C3C3C3"/>
</svg>
