<svg width="21" height="21" viewBox="0 0 21 21" fill="none" xmlns="http://www.w3.org/2000/svg">
<circle cx="10.5" cy="10.5" r="10.25" stroke="#293858" stroke-width="0.5"/>
<g clip-path="url(#clip0)">
<path d="M13.5369 11.7634C13.4477 11.7634 13.3754 11.8357 13.3754 11.9249V12.8017C13.3754 14.3872 12.0855 15.6771 10.5 15.6771C8.9145 15.6771 7.62459 14.3872 7.62459 12.8017V9.61116C7.62459 9.52199 7.55233 9.44971 7.46314 9.44971C7.37398 9.44971 7.3017 9.52199 7.3017 9.61116V12.8017C7.3017 14.5652 8.73645 16 10.5 16C12.2636 16 13.6983 14.5652 13.6983 12.8017V11.9249C13.6983 11.8357 13.6261 11.7634 13.5369 11.7634Z" fill="#293858"/>
<path d="M10.5 5C8.73645 5 7.3017 6.43476 7.3017 8.19831V8.96536C7.3017 9.05452 7.37398 9.12681 7.46314 9.12681C7.55233 9.12681 7.62459 9.05452 7.62459 8.96536V8.19831C7.62459 6.66703 8.82783 5.41161 10.3385 5.32752V6.48364C10.0631 6.55539 9.85916 6.8062 9.85916 7.10376V8.03523C9.85916 8.33279 10.0631 8.58359 10.3385 8.65534V9.79817C10.3385 9.88734 10.4107 9.95962 10.4999 9.95962C10.5891 9.95962 10.6614 9.88734 10.6614 9.79817V8.65534C10.9368 8.58359 11.1407 8.33279 11.1407 8.03523V7.10376C11.1407 6.8062 10.9368 6.55539 10.6614 6.48364V5.3275C12.1721 5.4115 13.3754 6.66694 13.3754 8.19829V11.279C13.3754 11.3682 13.4477 11.4405 13.5369 11.4405C13.6261 11.4405 13.6983 11.3682 13.6983 11.279V8.19831C13.6983 6.43476 12.2636 5 10.5 5ZM10.8178 7.10376V8.03523C10.8178 8.21049 10.6752 8.35308 10.4999 8.35308C10.3247 8.35308 10.1821 8.21049 10.1821 8.03523V7.10376C10.1821 6.92849 10.3247 6.7859 10.4999 6.7859C10.6752 6.7859 10.8178 6.92849 10.8178 7.10376Z" fill="#293858"/>
</g>
<defs>
<clipPath id="clip0">
<rect width="11" height="11" fill="white" transform="translate(5 5)"/>
</clipPath>
</defs>
</svg>
