<svg width="13" height="13" viewBox="0 0 13 13" fill="none" xmlns="http://www.w3.org/2000/svg">
<g clip-path="url(#clip0)">
<path d="M12.7477 10.3371L11.3065 9.37619L10.0253 8.52223C9.77809 8.35773 9.44581 8.41166 9.26327 8.64596L8.47051 9.6651C8.30022 9.88625 7.99388 9.94981 7.74968 9.8146C7.21176 9.51538 6.57566 9.23365 5.17213 7.82832C3.7686 6.42299 3.48507 5.78869 3.18584 5.25077C3.05064 5.00656 3.11419 4.70023 3.33534 4.52996L4.35449 3.7372C4.58876 3.55469 4.64272 3.22241 4.47821 2.97513L3.65049 1.73342L2.66339 0.252756C2.49538 0.000731718 2.15906 -0.0749315 1.89932 0.0808382L0.760916 0.763787C0.453262 0.945049 0.22711 1.23775 0.129306 1.5812C-0.182004 2.71623 -0.244769 5.22004 3.76792 9.23273C7.78061 13.2454 10.2842 13.1825 11.4192 12.8711C11.7627 12.7733 12.0554 12.5472 12.2366 12.2395L12.9196 11.1011C13.0754 10.8414 12.9997 10.5051 12.7477 10.3371Z" fill="#C3C3C3"/>
<path d="M7.39642 2.01717C9.49981 2.01951 11.2044 3.72407 11.2067 5.82748C11.2067 5.95125 11.3071 6.05162 11.4309 6.05162C11.5546 6.05162 11.655 5.95128 11.655 5.82748C11.6524 3.47661 9.74731 1.5715 7.39645 1.56891C7.27267 1.56891 7.1723 1.66925 7.1723 1.79305C7.17228 1.91681 7.27262 2.01717 7.39642 2.01717Z" fill="#C3C3C3"/>
<path d="M7.39645 3.36196C8.75745 3.36356 9.86032 4.46646 9.86192 5.82743C9.86192 5.95121 9.96227 6.05158 10.0861 6.05158C10.2098 6.05158 10.3102 5.95124 10.3102 5.82743C10.3084 4.21898 9.00492 2.91552 7.39645 2.91367C7.27267 2.91367 7.1723 3.01401 7.1723 3.13781C7.1723 3.26161 7.27264 3.36196 7.39645 3.36196Z" fill="#C3C3C3"/>
<path d="M7.39642 4.70678C8.01506 4.70752 8.51636 5.20882 8.5171 5.82746C8.5171 5.95124 8.61744 6.0516 8.74125 6.0516C8.86502 6.0516 8.96539 5.95126 8.96539 5.82746C8.9644 4.96137 8.26254 4.2595 7.39645 4.25851C7.27267 4.25851 7.1723 4.35886 7.1723 4.48266C7.17228 4.60644 7.27262 4.70678 7.39642 4.70678Z" fill="#C3C3C3"/>
</g>
<defs>
<clipPath id="clip0">
<rect width="13" height="13" fill="white"/>
</clipPath>
</defs>
</svg>
